<?xml version="1.0" encoding="utf-8"?>

<!DOCTYPE svg PUBLIC "-//W3C//DTD SVG 1.1//EN" "http://www.w3.org/Graphics/SVG/1.1/DTD/svg11.dtd">
<!-- Uploaded to: SVG Repo, www.svgrepo.com, Generator: SVG Repo Mixer Tools -->
<svg height="800px" width="800px" version="1.1" id="_x32_" xmlns="http://www.w3.org/2000/svg" xmlns:xlink="http://www.w3.org/1999/xlink" 
	 viewBox="0 0 512 512"  xml:space="preserve">
<style type="text/css">
	.st0{fill:#000000;}
</style>
<g>
	<path class="st0" d="M413.679,418.931c-10.649-15.948-26.825-24.767-42.026-30.497c-7.625-2.867-15.074-4.983-21.637-6.779
		c-6.552-1.783-12.253-3.288-16.082-4.727c-6.697-2.495-13.773-5.712-18.71-9.18c-2.466-1.72-4.366-3.492-5.468-5.001
		c-1.113-1.545-1.416-2.611-1.428-3.544c0-6.371,0-14.328,0-24.75c0.239-0.385,0.478-0.752,0.717-1.148
		c8.534-9.548,20.308-24.161,25.222-46.934c1.766-0.799,3.515-1.696,5.199-2.868c4.191-2.891,7.746-7.094,10.76-12.806
		c3.031-5.736,5.718-13.068,8.586-23.1c1.452-5.088,2.122-9.501,2.122-13.441c0-1.626-0.158-3.148-0.391-4.617
		c2.623-6.114,5.782-17.038-0.332-25.186c-2.183-2.909-4.22-6.995-6.091-11.43c19.75-8.137,43.456-20.127,51.938-33.452
		c15.505-24.365-9.256-51.661-66.644-23.065c-0.907-20.121,7.95-119.794,7.95-119.794S325.771,0,256.003,0
		c-69.768,0-91.367,16.612-91.367,16.612s7.755,101.882,7.95,119.794c-57.385-28.596-82.149-1.3-66.644,23.065
		c7.598,11.937,27.419,22.802,45.666,30.788c-7.362,13.499-12.885,30.345-0.49,44.509c0.064,3.794,0.694,7.992,2.075,12.829
		c3.836,13.36,7.298,21.986,11.78,28.317c2.238,3.141,4.791,5.666,7.566,7.589c1.684,1.172,3.433,2.069,5.199,2.868
		c3.579,16.583,10.76,28.841,17.761,37.946c2.681,4.605,5.478,8.918,8.178,12.532c0,9.245,0,16.484,0,22.354
		c0,0.792-0.315,1.935-1.545,3.567c-1.801,2.425-5.537,5.357-9.973,7.851c-4.424,2.518-9.513,4.699-13.966,6.261
		c-5.228,1.859-13.652,3.788-23.088,6.493c-14.182,4.098-30.946,10.008-44.585,21.707c-6.808,5.84-12.789,13.19-16.991,22.318
		c-4.208,9.123-6.622,19.964-6.616,32.648c0,2.938,0.128,5.98,0.396,9.128c0.192,2.215,1.032,4.004,2.017,5.479
		c1.876,2.763,4.365,4.809,7.484,6.913c5.461,3.614,13.027,7.146,22.715,10.615c28.992,10.34,76.993,19.8,136.476,19.818
		c48.327-0.006,89.117-6.278,118.232-14.152c14.566-3.946,26.195-8.272,34.6-12.59c4.208-2.174,7.612-4.325,10.311-6.68
		c1.352-1.19,2.535-2.436,3.532-3.923c0.98-1.474,1.825-3.264,2.017-5.479c0.262-3.142,0.39-6.173,0.39-9.105
		C425.109,443.161,420.767,429.534,413.679,418.931z M335.351,225.891l5.491-0.396c0.326-0.023,2.53,0.175,3.946,1.125
		c0.752,0.478,1.364,1.038,1.924,2.069c0.553,1.038,1.084,2.67,1.095,5.468c0,2.419-0.425,5.666-1.62,9.839
		c-3.62,12.754-6.866,20.168-9.846,24.283c-1.492,2.075-2.856,3.381-4.371,4.442c-1.399,0.968-3.031,1.749-5.054,2.5
		C327.208,260.957,328.671,239.333,335.351,225.891z M181.149,273.361c-0.368-0.209-0.775-0.408-1.114-0.641
		c-2.244-1.585-4.278-3.748-6.656-8.178c-2.349-4.412-4.838-10.993-7.56-20.547c-1.195-4.173-1.62-7.426-1.62-9.839
		c0.006-2.798,0.542-4.43,1.09-5.468c0.828-1.503,1.842-2.144,3.136-2.658c1.061-0.408,2.168-0.513,2.588-0.53l3.09,0.384
		C181.679,238.044,181.773,258.725,181.149,273.361z M191.915,266.168c-1.597-6.172-1.958-12.38-1.958-16.315
		c0-7.134,0-60.567,0-69.969c7.988,1.836,38.418,8.382,66.046,8.382c26.682,0,55.965-6.103,65.137-8.172c0,9.932,0,62.672,0,69.76
		c0,7.84-10.766,26.44-21.537,28.392c0,8.808-6.849,29.366-44.055,29.366c-37.2,0-44.049-20.558-44.049-29.366
		C206.184,278.246,198.151,272.662,191.915,266.168z M256.003,483.602l-50.717-105.963c2.722-2.04,5.264-4.255,7.303-6.93
		c2.384-3.13,4.214-7.036,4.214-11.506c0-3.27,0-6.978,0-11.168c12.975,5.683,38.744,14.199,38.744,10.27
		c0,4.022,27.011-4.995,39.654-10.673c0,4.372,0,8.19,0,11.57c-0.012,4.33,1.672,8.218,3.975,11.325
		c2.074,2.786,4.663,5.106,7.501,7.193L256.003,483.602z"/>
	<path class="st0" d="M286.365,368.651c-2.011-1.37-4.588-1.656-6.849-0.764l-23.513,9.274l-23.514-9.274
		c-2.273-0.892-4.838-0.606-6.854,0.764c-2.017,1.37-3.223,3.655-3.223,6.097v21.677c0,2.448,1.206,4.727,3.223,6.097
		c2.017,1.375,4.582,1.667,6.854,0.769l23.514-9.268l23.513,9.262c2.274,0.904,4.838,0.612,6.849-0.763
		c2.017-1.37,3.223-3.655,3.223-6.097v-21.677C289.589,372.306,288.382,370.021,286.365,368.651z"/>
</g>
</svg>